<svg xmlns="http://www.w3.org/2000/svg" viewBox="0 0 175.84 196.58"><defs><style>.cls-1{font-size:19px;}.cls-1,.cls-2{fill:#231f20;font-family:GentiumBookPlus, Gentium Book Plus;}.cls-2{font-size:12.32px;}.cls-3{fill:none;}</style></defs><g id="Layer_2" data-name="Layer 2"><g id="Layer_1-2" data-name="Layer 1"><text class="cls-1" transform="matrix(-0.04, -1, 1, -0.04, 32.88, 105.36)">S</text><text class="cls-1" transform="translate(32.42 96.58) rotate(-82.68)">C</text><text class="cls-1" transform="translate(33.5 86.86) rotate(-71.21)">H</text><text class="cls-1" transform="matrix(0.51, -0.86, 0.86, 0.51, 37.37, 75.48)">O</text><text class="cls-1" transform="matrix(0.66, -0.75, 0.75, 0.66, 43.12, 66.05)">L</text><text class="cls-1" transform="matrix(0.75, -0.66, 0.66, 0.75, 48.99, 59.45)">I</text><text class="cls-1" transform="translate(52.9 55.69) rotate(-32.56)">A</text><text class="cls-1" transform="translate(62.42 49.9) rotate(-25.18)">·</text><text class="cls-1" transform="translate(64.89 48.49) rotate(-18.47)">P</text><text class="cls-1" transform="translate(73.99 45.27) rotate(-7.16)">U</text><text class="cls-1" transform="matrix(1, 0.08, -0.08, 1, 85.85, 43.79)">G</text><text class="cls-1" transform="matrix(0.97, 0.23, -0.23, 0.97, 96.55, 44.82)">I</text><text class="cls-1" transform="translate(101.93 45.94) rotate(20.73)">L</text><text class="cls-1" transform="matrix(0.87, 0.5, -0.5, 0.87, 110.14, 49)">L</text><text class="cls-1" transform="translate(117.8 53.26) rotate(40.37)">Ā</text><text class="cls-1" transform="translate(126.18 60.36) rotate(51.35)">T</text><text class="cls-1" transform="translate(132.57 68.2) rotate(62.51)">Ō</text><text class="cls-1" transform="translate(137.66 77.94) rotate(73.78)">R</text><text class="cls-1" transform="matrix(0.14, 0.99, -0.99, 0.14, 140.45, 88.06)">I</text><text class="cls-1" transform="translate(141.43 93.41) rotate(90.76)">A</text><text class="cls-2" transform="translate(29.4 126.57) rotate(60.61)">S</text><text class="cls-2" transform="matrix(0.6, 0.8, -0.8, 0.6, 34.24, 134.58)">I</text><text class="cls-2" transform="matrix(0.66, 0.75, -0.75, 0.66, 38.43, 139.88)">·</text><text class="cls-2" transform="matrix(0.75, 0.66, -0.66, 0.75, 42.08, 143.87)">P</text><text class="cls-2" transform="matrix(0.85, 0.52, -0.52, 0.85, 49.95, 150.44)">U</text><text class="cls-2" transform="translate(60.19 156.28) rotate(21.28)">G</text><text class="cls-2" transform="translate(70.48 159.97) rotate(11.19)">N</text><text class="cls-2" transform="translate(82.04 161.9) rotate(1.05)">Ā</text><text class="cls-2" transform="translate(93.04 161.77) rotate(-8.07)">S</text><text class="cls-2" transform="translate(102.14 160.18) rotate(-14.53)">·</text><text class="cls-2" transform="translate(107.3 158.78) rotate(-21.35)">P</text><text class="cls-2" transform="matrix(0.86, -0.52, 0.52, 0.86, 116.73, 154.83)">U</text><text class="cls-2" transform="translate(126.61 148.43) rotate(-41.25)">G</text><text class="cls-2" transform="matrix(0.63, -0.78, 0.78, 0.63, 134.63, 141.01)">N</text><text class="cls-2" transform="translate(141.7 131.65) rotate(-61.5)">Ō</text><path class="cls-3" d="M99.83,99.86c0,.1.08.13.08.16.4,1.9-.46,4,.83,5.75,0,0,0,.07,0,.1.15,1.31.23,2.63.47,3.92.53,2.77-.08,5.53-.08,8.29a11.62,11.62,0,0,1-.27,1.85,12.54,12.54,0,0,0-.45,3.21c.4,3.28-.82,6.25-1.51,9.31-.4,1.75-.05,2.71,1.72,2.93a50.48,50.48,0,0,0,5.89.37c1.38,0,2.76-.2,4.14-.32.49,0,1.17,0,1.06-.68a1.5,1.5,0,0,0-.93-.91c-1.36-.47-2.78-.81-4.16-1.25-.25-.09-.6-.4-.61-.61a8.66,8.66,0,0,1,.19-2.55c.51-1.63,1.2-3.21,1.81-4.82a2.74,2.74,0,0,0,.27-.84c0-2.13,0-4.25,0-6.37a34.9,34.9,0,0,1,.09-3.69,25.33,25.33,0,0,1,.64-2.64,11.79,11.79,0,0,1,.5-2.58,15.11,15.11,0,0,0,1.28-6.64,4.12,4.12,0,0,1,1.25-3,3.11,3.11,0,0,0,.78-1.3,9,9,0,0,0-.08-6.19c-.48-1.15-.6-2.47.66-3.39l1.5-1.11a32.4,32.4,0,0,0,3.87-3,11.65,11.65,0,0,0,3.22-7.8,1.66,1.66,0,0,0-.24-.83c-.57-1-1.2-2-1.73-3a1.71,1.71,0,0,1,0-1,3.87,3.87,0,0,1,2-3,.63.63,0,0,0,.27-.29,9,9,0,0,0,.77-5.29c-.08-.47-.64-.87-1-1.26-.15-.16-.43-.18-.61-.31a5.79,5.79,0,0,0-6.53-.51,7.32,7.32,0,0,0-4.19,4.88,14.86,14.86,0,0,1-1.23-1.81,8.41,8.41,0,0,1-1.09-2.81,4.9,4.9,0,0,0-1.57-3.17,20.51,20.51,0,0,0-3.66-2.33c-.17-.1-.47,0-.71.05a2.34,2.34,0,0,0,.19.6c.31.46.82.86,1,1.36a2,2,0,0,1-.38,1.36c-.1.16-.64.08-1,0-.66-.11-1.3-.28-1.95-.42l-.26.38c.71.79,1.43,1.57,2.12,2.38s1.45,1.73,2.13,2.62,1.27,1.78,1.82,2.56L98.41,64l-.07-.93a6.85,6.85,0,0,1-4-2.65A13.81,13.81,0,0,0,92,58c-.44-.34-1.29-.23-1.94-.2-.17,0-.51.62-.43.73a4.9,4.9,0,0,0,.92.83s.06.11.09.17a1.77,1.77,0,0,1-2,1.3c-.8-.05-1.72-.32-2.55.63.65.33,1.2.65,1.78.91a12,12,0,0,1,2.52,1.11,29.45,29.45,0,0,1,3.06,3,4.72,4.72,0,0,1,1.17,1.42c.78,2.21,2.41,3.24,4.53,4,1.34.46,2.89.32,4,1.4a1.18,1.18,0,0,1,.43,1.36,14.12,14.12,0,0,0-.55,2.66c-.09,1,0,2,0,3a1.64,1.64,0,0,1-.54,1.16A8.57,8.57,0,0,0,99.67,85a2.26,2.26,0,0,1-2.07,1.4c-.66,0-1.32.1-2,.18a21.55,21.55,0,0,0-8.59,3c-1.89,1.13-3.1,4.5-2,6.46a6.17,6.17,0,0,1,.53,3.84,12,12,0,0,0,.77,4.21,17.72,17.72,0,0,0,1.51,3.14c.74,1.58,1.63,3.06,1.48,5a5,5,0,0,1-1.3,3.55c-.79.76-1.55,1.56-2.32,2.34l-.24-.06c0-1,.14-2.07.16-3.11a11.05,11.05,0,0,0-1-5.54,8.13,8.13,0,0,1-.34-1.22,2.15,2.15,0,0,0-.26-.58,14.32,14.32,0,0,1-1.09-1.73c-.75-1.73-.58-3.62-.89-5.43a11.91,11.91,0,0,0-1.23-3.57c-.75-1.42-1.78-2.69-2.67-4a1.47,1.47,0,0,1-.3-.72c0-1.39-.88-2.74-.17-4.16.08-.15,0-.39,0-.59-.1-1.77-.21-3.54-.31-5.32.77,0,1.4,0,2,0a3.62,3.62,0,0,0,3.58-2,11.77,11.77,0,0,1,1.28-1.63c1.26-1.43,2.64-2.76,3.77-4.27s1.76-3.52,3.46-4.71c.21-.14.13-.72.18-1.1a2.54,2.54,0,0,0-.91,0,14.92,14.92,0,0,0-1.63.85l-.31-.17c-.73-.48-1.84-.76-.94-2a.94.94,0,0,0-.28-.84c-.2-.12-.61,0-.89.13-.45.2-.85.49-1.28.73C83.12,68.3,82.77,69,83,71.5a1.19,1.19,0,0,1-.11.47,6.6,6.6,0,0,1-4,3.88,13.48,13.48,0,0,1-2.31-2.27,2.9,2.9,0,0,0-2.71-1.46,4.92,4.92,0,0,0,.34-1.27c0-1.21.65-1.69,1.71-1.94a2.24,2.24,0,0,0,1.1-.57c1.76-1.85,4.07-2.75,6.32-3.77a8.11,8.11,0,0,0,1-.66l-.14-.32c-.87-.07-1.75-.2-2.62-.19s-1.43,0-1.72-.89c-.15-.45-.38-.87-.57-1.3.45-.16-1.64-1-3.38-.36a4.72,4.72,0,0,0-2.57,3.25c-.65,1.89-2.11,3.16-3.14,4.75-.7,1.08-2.21.74-3-.43s-.4-2.22-.24-3.3c.3-2,.72-4.1-.21-6-.36-.76-1.18-1.73-1.89-1.81-2.44-.28-4.75.13-6.49,2.27a5.26,5.26,0,0,0,.29,6.4c.94.93,1.94,1.8,2.1,3.32-1.11,1.5-2.29,3.1-3.48,4.68a7.9,7.9,0,0,0-1.11,1.38,8.28,8.28,0,0,0,.5,7.41,16.7,16.7,0,0,1,2,4.5,2.31,2.31,0,0,0,.71,1.25c2.59,2.1,3.36,4.93,3.23,8.08-.06,1.55-.33,3.09-.51,4.63-.15,1.31-.34,2.61-.46,3.92-.15,1.71-.31,3.43-.36,5.16-.06,2-.57,4,.35,6a2.75,2.75,0,0,1-.09,2.55,5.77,5.77,0,0,0-.47,2.19,14.81,14.81,0,0,0,1.32,7.7c.65,1.27.65,2.86,1.1,4.25a1.6,1.6,0,0,1-.66,2.17c-.78.49-1.58.95-2.34,1.48-1.08.76-1.07,1.92-.9,3.05.12.85.91,1.07,1.63,1.19a4.19,4.19,0,0,0,1.54,0c1.58-.35,3.26-.51,4.08-2.3a6.26,6.26,0,0,1,1.51-2c1-.86,1.35-1.84.43-2.79-1.31-1.36-1.13-3.11-1.54-4.69a4.22,4.22,0,0,1,0-1.58c.21-1.46.5-2.91.69-4.37a13,13,0,0,0,0-2.16,17.17,17.17,0,0,1-.12-3.91c.46-2.16,1.27-4.25,1.94-6.37a17.34,17.34,0,0,0,.57-1.86,11,11,0,0,1,1.68-4.5,1.44,1.44,0,0,1,.25.23c1.83,2.86,3.71,5.69,5.47,8.59a6.11,6.11,0,0,1,.74,4.81,12.8,12.8,0,0,0-.39,3.59,31.51,31.51,0,0,0,.66,4.08,9.16,9.16,0,0,0,.51,1.79,8.08,8.08,0,0,1,.47,5.4c-.7,2.35-.54,2.67,1.94,2.6.13,0,.27,0,.4,0a5.41,5.41,0,0,1,1.69.2,8.18,8.18,0,0,0,4.9.88c.89-.13,1.81-.16,2.71-.2.62,0,1.12-.09,1.12-.91s-.44-1-1.14-1a12.87,12.87,0,0,1-2.89-.57c-.78-.27-1.41-1-2.19-1.25a2.56,2.56,0,0,1-1.66-2.74c0-1.4.36-2.79.48-4.19.13-1.6.18-3.21.28-5,1.27.45,1.84-.38,2.64-.92A18.12,18.12,0,0,1,92,117.67a4.28,4.28,0,0,0,2.3-2.35c.37-1.32-.44-2.36-.65-3.54a26.63,26.63,0,0,1,0-7.19,17.41,17.41,0,0,0-.24-5,20.42,20.42,0,0,0-1.77-3.93C94.81,96.67,96.76,99.48,99.83,99.86Z"/><path d="M99.83,99.86c-3.07-.38-5-3.19-8.17-4.19a20.42,20.42,0,0,1,1.77,3.93,17.41,17.41,0,0,1,.24,5,26.63,26.63,0,0,0,0,7.19c.21,1.18,1,2.22.65,3.54a4.28,4.28,0,0,1-2.3,2.35,18.12,18.12,0,0,0-3.89,1.94c-.8.54-1.37,1.37-2.64.92-.1,1.76-.15,3.37-.28,5-.12,1.4-.46,2.79-.48,4.19a2.56,2.56,0,0,0,1.66,2.74c.78.29,1.41,1,2.19,1.25a12.87,12.87,0,0,0,2.89.57c.7.07,1.15.22,1.14,1s-.5.88-1.12.91c-.9,0-1.82.07-2.71.2a8.18,8.18,0,0,1-4.9-.88,5.41,5.41,0,0,0-1.69-.2c-.13,0-.27,0-.4,0-2.48.07-2.64-.25-1.94-2.6a8.08,8.08,0,0,0-.47-5.4,7.65,7.65,0,0,1-.48-1.66,32.11,32.11,0,0,1-.69-4.21,12.8,12.8,0,0,1,.39-3.59,6.11,6.11,0,0,0-.74-4.81c-1.76-2.9-3.64-5.73-5.47-8.59a1.44,1.44,0,0,0-.25-.23,11,11,0,0,0-1.68,4.5,17.34,17.34,0,0,1-.57,1.86c-.67,2.12-1.48,4.21-1.94,6.37a17.17,17.17,0,0,0,.12,3.91A13,13,0,0,1,68,123c-.19,1.46-.48,2.91-.69,4.37a4.22,4.22,0,0,0,0,1.58c.41,1.58.23,3.33,1.54,4.69.91.94.57,1.92-.4,2.77a5.49,5.49,0,0,0-1.5,1.95c-.78,1.82-2.42,2-4,2.36a4.26,4.26,0,0,1-1.63.06c-.73-.12-1.56-.33-1.68-1.2-.17-1.13-.18-2.29.9-3.05.73-.51,1.5-1,2.25-1.42a1.9,1.9,0,0,0,.75-2.23c-.45-1.39-.45-3-1.1-4.25a14.81,14.81,0,0,1-1.32-7.7,5.77,5.77,0,0,1,.47-2.19,2.75,2.75,0,0,0,.09-2.55c-.92-1.94-.41-4-.35-6,.05-1.73.21-3.45.36-5.16.12-1.31.31-2.61.46-3.92.18-1.54.45-3.08.51-4.63.13-3.14-.63-6-3.2-8.06a2.12,2.12,0,0,1-.73-1.24,16.61,16.61,0,0,0-2-4.53,8.28,8.28,0,0,1-.5-7.41,7.9,7.9,0,0,1,1.11-1.38c1.19-1.58,2.37-3.18,3.48-4.68-.16-1.52-1.16-2.39-2.1-3.32a5.26,5.26,0,0,1-.29-6.4c1.74-2.14,4.05-2.55,6.49-2.27.71.08,1.53,1,1.89,1.81.93,1.94.51,4,.21,6-.16,1.08-.45,2.23.24,3.3s2.26,1.51,3,.43c1-1.59,2.49-2.86,3.14-4.75a4.72,4.72,0,0,1,2.57-3.25A35.42,35.42,0,0,1,81.06,59a3,3,0,0,1,1.71-.12c0,.15,0,0,.2.49-2.82.37-3.23,1.65-3.68,1.81,0,.57.42.85.57,1.3.29.86.94.9,1.72.89s1.75.12,2.62.19l.14.32a8.11,8.11,0,0,1-1,.66c-2.25,1-4.56,1.92-6.32,3.77a2.24,2.24,0,0,1-1.1.57c-1.06.25-1.73.73-1.71,1.94a4.92,4.92,0,0,1-.34,1.27,2.9,2.9,0,0,1,2.71,1.46,13.48,13.48,0,0,0,2.31,2.27A6.51,6.51,0,0,0,83,71.66a.47.47,0,0,0,0-.17c-.24-2.52.11-3.19,2.32-4.4.43-.24.83-.53,1.28-.73.28-.13.69-.25.89-.13a.94.94,0,0,1,.28.84c-.9,1.27.21,1.55.94,2l.31.17a14.92,14.92,0,0,1,1.63-.85,2.54,2.54,0,0,1,.91,0c0,.38,0,1-.18,1.1-1.7,1.19-2.3,3.15-3.46,4.71s-2.51,2.84-3.77,4.27a10.84,10.84,0,0,0-1.32,1.71,3.78,3.78,0,0,1-3.54,1.89c-.62,0-1.25,0-2,0,.1,1.78.21,3.55.31,5.32,0,.2.13.44,0,.59-.71,1.42.12,2.77.17,4.16a1.47,1.47,0,0,0,.3.72c.89,1.34,1.92,2.61,2.67,4A11.91,11.91,0,0,1,82,100.49c.31,1.81.14,3.7.89,5.43A14.32,14.32,0,0,0,84,107.65a2.15,2.15,0,0,1,.26.58,8.13,8.13,0,0,0,.34,1.22,11.05,11.05,0,0,1,1,5.54c0,1-.1,2-.16,3.06l.24.11c.77-.78,1.53-1.58,2.32-2.34a5,5,0,0,0,1.3-3.55c.15-1.93-.74-3.41-1.48-5a17.72,17.72,0,0,1-1.51-3.14,12,12,0,0,1-.77-4.21A6.17,6.17,0,0,0,85,96.09c-1.09-2,.12-5.33,2-6.46a21.55,21.55,0,0,1,8.59-3c.66-.08,1.32-.16,2-.18A2.26,2.26,0,0,0,99.67,85a8.57,8.57,0,0,1,2.76-3.68A1.64,1.64,0,0,0,103,80.2c.07-1,0-2,0-3a14.12,14.12,0,0,1,.55-2.66,1.18,1.18,0,0,0-.43-1.36c-1.13-1.08-2.68-.94-4-1.4-2.12-.74-3.75-1.77-4.53-4a4.72,4.72,0,0,0-1.17-1.42,29.45,29.45,0,0,0-3.06-3,12,12,0,0,0-2.52-1.11c-.58-.26-1.13-.58-1.78-.91.83-.95,1.75-.68,2.55-.63a1.76,1.76,0,0,0,2-1.22l-.06-.25a4.9,4.9,0,0,1-.92-.83c-.08-.11.26-.72.43-.73.65,0,1.5-.14,1.94.2a13.81,13.81,0,0,1,2.31,2.51,6.85,6.85,0,0,0,4,2.65l.07.93,7.69,2.17c-.55-.78-1.16-1.69-1.82-2.56s-1.4-1.76-2.13-2.62-1.41-1.59-2.12-2.38l.26-.38c.65.14,1.29.31,1.95.42.33.05.87.13,1,0a2,2,0,0,0,.38-1.36c-.13-.5-.64-.9-1-1.36a2.34,2.34,0,0,1-.19-.6c.24,0,.54-.15.71-.05a20.51,20.51,0,0,1,3.66,2.33,4.9,4.9,0,0,1,1.57,3.17,8.41,8.41,0,0,0,1.09,2.81,14.86,14.86,0,0,0,1.23,1.81,7.32,7.32,0,0,1,4.19-4.88,5.79,5.79,0,0,1,6.53.51c.18.13.46.15.61.31.38.39.94.79,1,1.26a8.92,8.92,0,0,1-.77,5.28.81.81,0,0,1-.33.33,3.87,3.87,0,0,0-1.94,3,1.71,1.71,0,0,0,0,1c.53,1,1.16,2,1.73,3a2.12,2.12,0,0,1,.23,1,11.64,11.64,0,0,1-3.21,7.64,32.4,32.4,0,0,1-3.87,3L113.36,88a2.6,2.6,0,0,0-.66,3.39,8.94,8.94,0,0,1,.08,6.18,2.68,2.68,0,0,1-.68,1.22,4.11,4.11,0,0,0-1.35,3.09,15.11,15.11,0,0,1-1.28,6.64,11.79,11.79,0,0,0-.5,2.58,25.33,25.33,0,0,0-.64,2.64c-.21,2.05,0,4.15-.19,6.17a20.46,20.46,0,0,0,.14,3.83,2.33,2.33,0,0,1-.27.9c-.61,1.61-1.3,3.19-1.81,4.82A8.66,8.66,0,0,0,106,132c0,.21.36.52.61.61,1.38.44,2.8.78,4.16,1.25a1.5,1.5,0,0,1,.93.91c.11.71-.57.64-1.06.68-1.38.12-2.76.33-4.14.32a50.48,50.48,0,0,1-5.89-.37c-1.77-.22-2.12-1.18-1.72-2.93,2-3.17,1.8-4.7.9-8.58-.13-1,.9-2.86,1.06-3.94a11.62,11.62,0,0,0,.27-1.85c0-2.76.61-5.52.08-8.29-.24-1.29-.32-2.61-.47-3.92,0,0-.43-4-.83-5.85C99.91,100,99.88,100,99.83,99.86Zm-25.11,6.9c1.56,2.58,3.54,4.9,4.66,7.75a1.91,1.91,0,0,0,.56.68,6.46,6.46,0,0,1,1.9,3.4c-1.42-.59-1.11-2.36-2.23-2.71,0,2-.15,4.05,0,6.07a34.59,34.59,0,0,0,1.14,4.33c.17.69.12,1.43.3,2.12a4.35,4.35,0,0,1-.26,3.22,14.34,14.34,0,0,0-.79,3,12.58,12.58,0,0,0,1.64,0,4.87,4.87,0,0,1,3.26.56,5.57,5.57,0,0,0,3.36.59c1-.07,2-.11,3-.19a4.12,4.12,0,0,0,.9-.33,3.1,3.1,0,0,0-.58-.28c-1.15-.25-2.33-.4-3.44-.76-.71-.24-1.27-.88-2-1.15a3.19,3.19,0,0,1-2.1-3.41c0-1.14.39-2.26.45-3.4.16-2.6.26-5.21.32-7.81,0-.78-.27-1.58-.19-2.35a12.15,12.15,0,0,0-.89-6.84,10.71,10.71,0,0,0-.41-1c-.47-.69-1.23-1.26-1.47-2a15.56,15.56,0,0,0-3.13-5.27c-.17-.2-.19-.6-.39-.69a5.09,5.09,0,0,1-2.73-4H74.57c-.26.46-.74-.08-.5-.76-1.22.48-1.95,2.09-3.53,1.71l-.14-.3,1.07-.46-.31-.36a23,23,0,0,0,2.48-2.71A6.79,6.79,0,0,0,75,88.54c-.12-.87-.88-1.38-.87-2.07a29.77,29.77,0,0,1,.55-4,1.41,1.41,0,0,1,.32,2,1.74,1.74,0,0,0,.31,2.43,1.11,1.11,0,0,1,.24.6,7.76,7.76,0,0,1-.83,5.36c.32.35,2.27-5.08,2.14-7.35a22,22,0,0,0-.23-3.46c-.5-2.32-1.17-4.6-1.75-6.9a2.4,2.4,0,0,1,0-.65l.27-.06a4.09,4.09,0,0,1,.66,1.25,14.89,14.89,0,0,0,1,4.3c.52,1.26.81,1.62,2.28,1.35-1.58-1.43-1.08-3-.44-4.61-1-1.16-2-2.3-3-3.35a3,3,0,0,0-1.32-.54c-.1,0-.39.26-.43.44-.43,2-2.15,2.6-3.63,3.33a37.56,37.56,0,0,1-4.73,1.6c-.2.07-.54.27-.52.34.21.85-.47.67-.85.71-1.06.1-2.14.17-3.21.18a1.68,1.68,0,0,1-1.17-.33c-.24-.24-.22-.77-.23-1.17a.8.8,0,0,1,.61-.22c2,.71,3.74-.25,5.44-.82a28,28,0,0,0,5.5-3,4.61,4.61,0,0,0,2.55-4c-.73-.27-1.39-.54-2.07-.77a.83.83,0,0,0-.6,0,36.39,36.39,0,0,0-3.07,2c-1.83,1.39-4,1.32-6,1.23a3.67,3.67,0,0,0-3.41,1.27c-.24.31-.46.64-.71.94a7,7,0,0,0-.77,7,27,27,0,0,1,2.46,5.52,1.87,1.87,0,0,0,.66,1,9.33,9.33,0,0,1,3.27,7,31.53,31.53,0,0,1-.41,5.72c-.14,1.38-.47,2.73-.6,4.1q-.3,3.23-.44,6.45c-.06,1.57-.28,3.14.49,4.68a4.34,4.34,0,0,1,.14,2.41c-.1.82-.64,1.59-.69,2.39-.12,2.44-.21,4.9,1.12,7.14a6.48,6.48,0,0,1,.54,1.88c.16.67.24,1.35.43,2,.67,2.44,1,2.23-.83,3.83a6,6,0,0,1-1.21.62c-1.42.73-1.89,1.64-1.49,2.83.32,1,.71,1.13,2.21.91.18-1.52.43-1.87,1.35-1.78l-.75,1.58c.77.07,1-.19,1-.8,0-.17.29-.37.44-.56a5.69,5.69,0,0,1,.24.65c0,.09-.06.2-.09.31a1.1,1.1,0,0,0,.83-.33q1.49-1.84,2.92-3.74a.81.81,0,0,0,.15-.46,4.4,4.4,0,0,0-1.85-2.63,1.59,1.59,0,0,1-.88-.76,16.55,16.55,0,0,1-.63-2.68c-.31-2-.49-3.94-.83-5.89-.39-2.24-.85-4.42-.17-6.71.76-2.61,1.57-5.21,2.09-7.89s1.52-5.54.54-8.4a11.56,11.56,0,0,1-.53-2c0-.23.24-.52.37-.78.25.25.59.46.73.76.24.55.34,1.17.55,1.74.51,1.42,1.17,2.76.7,4.38a15.53,15.53,0,0,0-.25,3.2c.51-1.39.93-2.85,1.58-4.19a3.34,3.34,0,0,0,.34-3.26c1,1,1.75,1,2,.88-.08,2.52.53,3.21.64,3.22C73.87,105.25,74.09,105.73,74.72,106.76Zm11.14,13.12c.7.38,1.06-.12,1.46-.48A10.68,10.68,0,0,1,91.75,117c1.23-.32,2.4-1.86,2-2.87a18.84,18.84,0,0,1-1.13-6.68,5.91,5.91,0,0,0-.41-1.86c-.83-2-1.79-4-2.66-6-.17-.41-.4-1.08-.22-1.31.83-1,.91-2.38,2.32-3.2a4.51,4.51,0,0,1,4.14-.32c1.79.61,3.55,1.34,5.36,1.89a4.15,4.15,0,0,0,5.28-3.77c.08-.93.66-1.81.28-2.8,0-.09.09-.24.14-.36l.38.08a13.19,13.19,0,0,1,.35,2c0,1.52-.1,3-.15,4.57a1.07,1.07,0,0,0,1.49,1.1,7.09,7.09,0,0,0,.73-.26c1.93-.75,2.49-2.26,1.59-4.13a5.81,5.81,0,0,1-.42-1.6c-.4-2.73,1.57-4.39,2.95-6.29.65-.89,1.58-1.58,2.27-2.45a3.83,3.83,0,0,0,.81-2.68,8.06,8.06,0,0,1,.49-2.67c.43-1.46,1.5-2.77.86-4.44a.67.67,0,0,1,.13-.45c.33-.52.71-1,1-1.54.43-.73.61-1.44-.24-2.07a4.29,4.29,0,0,1-1.44-3.62c0-1.2.09-2.4.15-3.63-1.16-.72-2.42-1.07-3.57.13a12,12,0,0,1,.42,1.41c0,.2-.11.43-.18.65-.17-.17-.4-.31-.5-.52a12.25,12.25,0,0,1-.4-1.25,5,5,0,0,0-2,2.89c-.22.6-.43,1.07.35,1.43.27.12.39.55.6.88,1.76,0,1.76,0,1.66.75A13.48,13.48,0,0,0,112.6,68a26.35,26.35,0,0,1-8.7-1.63c-1.12-.35-2.25-.69-3.39-1s-2.08-.44-3.13-.66a3.61,3.61,0,0,0-.42.38c-1.07,1.13-1.47,3.09-.6,4a8,8,0,0,0,3,2c2.37.77,4.85,1.24,7.29,1.82.37.09.75.13,1.12.19v.34l-3.69,1.46c-.89,1.49-.28,3.44-.26,5.36A14.28,14.28,0,0,0,105,76.9c.18-.84.54-.56,1-.5-.16.51-.28.86-.37,1.22-.41,1.56-.88,3-2.38,4a8.14,8.14,0,0,0-3,3.82,3,3,0,0,1-2.37,1.64A20.68,20.68,0,0,0,87.2,90.35c-1.45,1-2.48,3.79-1.63,5.28a5.3,5.3,0,0,1,.69,3.16c-.13,2.18-.18,4.43,1.5,6.22.11.1.1.31.16.46a18.09,18.09,0,0,0,1.22,3c1.08,1.78.88,3.67.65,5.54-.19,1.52-1.34,2.53-2.47,3.45A3.51,3.51,0,0,0,85.86,119.88Zm14.88-20.7c0,1.79.59,6.9.64,7.71,0,.59.09,1.18.16,1.77.2,1.57.51,3.12.58,4.69a26.23,26.23,0,0,1-.27,3.85c-.1,1-.26,2.09-.39,3.13s-.92,1.91-1,3.09c-.14,1.64.83,4.25.51,5.86-3.56,6.56,1.07,5.62,2.35,5.48,1.72-1.48.07-2.95.4-4.3a72.88,72.88,0,0,0,1.74-7.64c.28-2.06,0-3.72-2-4.67,0-.11,0-.19,0-.24s.26-.38.41-.56a8.45,8.45,0,0,0,2-5.46,8.33,8.33,0,0,1,.48-2.9c.72-1.81.09-3.45-.41-5.11a3.84,3.84,0,0,0-.83-1.47c-1-1.15-2.19-2.21-3.34-3.36a5.81,5.81,0,0,1-1.43-.2,11.74,11.74,0,0,1-4.39-2.24c-.27-.26-.74-.29-1.12-.43C96.5,97.69,98.21,99.14,100.74,99.18ZM59.2,64.3l-.43.14a2.89,2.89,0,0,0,.33,1A20,20,0,0,1,60.59,67c1.24,1.86,1.17,2.66-.1,3.91a3.63,3.63,0,0,0-.41.65c3.92.48,8.3.13,7.91-2.07l-2.13-.82c-.69.45-1.09.45-1.87-.17a2.3,2.3,0,0,1,.76-.22A1.13,1.13,0,0,0,66,67.14c.13-2.1,1-4.18.3-6.34-.76-.08-1.64-.45-2.23-.18a8.84,8.84,0,0,0-2.82,2.07c-.41.45-.33,1.35-.47,2,0,.1,0,.22,0,.3s-.25.43-.37.65a3.51,3.51,0,0,1-.56-.44A10.72,10.72,0,0,1,59.2,64.3ZM81.56,74.93c-.34.43-.62,1.08-1.11,1.34a3.16,3.16,0,0,0-1.82,3.17c.14,1.41,1.69,2.31,2.66,1.43a22.62,22.62,0,0,0,2.43-3,.37.37,0,0,0,0-.35C83,76.71,83.39,75,81.56,74.93ZM67.21,117.36c-2.3,2.67-2.57,5.84-.59,7.1A13.55,13.55,0,0,0,67.21,117.36Zm44.32-50.13c-.86-.82-1.88-1.67-2.77-2.65-1.26-1.39-1.21-1.43-2.86-.8,0,0,0,0,0-.05l2.1,2.74-.22.2c.77.18,1.52.42,2.29.55A8.71,8.71,0,0,0,111.53,67.23ZM82.4,74.45c1.24-.09,1,1.08,1.45,1.68,2.31-2,1.91-4.44-.14-5.14C84.14,72.43,82.87,73.2,82.4,74.45ZM71.19,68.17a12.4,12.4,0,0,0,1.14.58c1.94.72,2.33.65,2.1-1.46,0,0-.08-.08-.1-.09Zm5.7-2.9-2.66-1.59-.87,1.83Zm10.25,5.32a3.85,3.85,0,0,0-2-1.64c-.58,0-1.32-.26-1.47.59ZM76.57,61.43l-.43-.12L74.91,63l.09.14a4,4,0,0,0,1.4-.54C76.62,62.4,76.52,61.83,76.57,61.43Zm27.39-.1c.37-.74,1.22-1.34.7-2.45C104.17,59.68,103.47,60.31,104,61.33ZM84.19,77.11l.44.24,1.14-1.84-.35-.21Z"/><path class="cls-3" d="M73.05,104l-.32,0c.07-1.09-2.15-1.87-2.67-.81-.65,1.34-1.07,2.8-1.58,4.19a15.53,15.53,0,0,1,.25-3.2c.47-1.62-.19-3-.7-4.38-.21-.57-.31-1.19-.55-1.74-.14-.3-.48-.51-.73-.76-.13.26-.4.55-.37.78a11.56,11.56,0,0,0,.53,2c.83,2.41.25,4.79-.27,7.13-.68,3.08-1.48,6.14-2.37,9.17-.67,2.28-.21,4.47.18,6.7.34,2,.52,3.93.83,5.89a16.55,16.55,0,0,0,.63,2.68,1.59,1.59,0,0,0,.88.76A4.4,4.4,0,0,1,68.64,135a.81.81,0,0,1-.15.46q-1.44,1.89-2.92,3.74a1.1,1.1,0,0,1-.83.33c0-.11.11-.22.09-.31a5.69,5.69,0,0,0-.24-.65c-.15.19-.44.39-.44.56,0,.61-.18.87-1,.8l.75-1.58c-.92-.09-1.17.26-1.35,1.78-1.5.22-1.89.07-2.21-.91-.4-1.19.07-2.1,1.49-2.83a6,6,0,0,0,1.21-.62c1.84-1.6,1.5-1.39.83-3.83-.19-.66-.27-1.34-.43-2A6.48,6.48,0,0,0,63,128c-1.33-2.24-1.24-4.7-1.12-7.14.05-.8.59-1.57.69-2.39a4.34,4.34,0,0,0-.14-2.41c-.77-1.54-.55-3.11-.49-4.68q.13-3.23.44-6.45c.13-1.37.46-2.72.6-4.1a31.53,31.53,0,0,0,.41-5.72c-.21-2.71-1-5.27-3.36-7.07a1.78,1.78,0,0,1-.57-1c-.5-2.12-1.71-3.92-2.62-5.84a6.2,6.2,0,0,1,.86-6.65c.29-.31.52-.68.78-1a3.67,3.67,0,0,1,3.41-1.27c2.06.09,4.22.16,6-1.23a36.39,36.39,0,0,1,3.07-2,.83.83,0,0,1,.6,0c.68.23,1.34.5,2.07.77a4.61,4.61,0,0,1-2.55,4,28,28,0,0,1-5.5,3c-1.7.57-3.48,1.53-5.44.82a.8.8,0,0,0-.61.22c0,.4,0,.93.23,1.17a1.68,1.68,0,0,0,1.17.33c1.07,0,2.15-.08,3.21-.18.38,0,1.06.14.85-.71,0-.07.32-.27.52-.34a37.56,37.56,0,0,0,4.73-1.6c1.48-.73,3.2-1.37,3.63-3.33,0-.18.33-.46.43-.44a3,3,0,0,1,1.32.54c1,1,2,2.19,3,3.35-.64,1.57-1.14,3.18.44,4.61-1.47.27-1.76-.09-2.28-1.35a14.89,14.89,0,0,1-1-4.3,4.09,4.09,0,0,0-.66-1.25l-.27.06a2.4,2.4,0,0,0,0,.65c.58,2.3,1.25,4.58,1.75,6.9a22,22,0,0,1,.23,3.46,22.71,22.71,0,0,1-.53,6.73c-.13.53-1.29,1-1.61.62a7.76,7.76,0,0,0,.83-5.36,1.11,1.11,0,0,0-.24-.6A1.74,1.74,0,0,1,75,84.5a1.41,1.41,0,0,0-.32-2,29.77,29.77,0,0,0-.55,4c0,.69.75,1.2.87,2.07a6.79,6.79,0,0,1-1.33,4.83,23,23,0,0,1-2.48,2.71l.31.36-1.07.46.14.3c1.58.38,2.31-1.23,3.53-1.71-.24.68.24,1.22.5.76h1.06a5.09,5.09,0,0,0,2.73,4c.2.09.22.49.39.69a15.56,15.56,0,0,1,3.13,5.27c.24.74,1,1.31,1.47,2a10.71,10.71,0,0,1,.41,1,12.15,12.15,0,0,1,.89,6.84c-.08.77.21,1.57.19,2.35-.06,2.6-.16,5.21-.32,7.81-.06,1.14-.42,2.26-.45,3.4a3.19,3.19,0,0,0,2.1,3.41c.71.27,1.27.91,2,1.15,1.11.36,2.29.51,3.44.76a3.1,3.1,0,0,1,.58.28,4.12,4.12,0,0,1-.9.33c-1,.08-2,.12-3,.19a5.57,5.57,0,0,1-3.36-.59,4.87,4.87,0,0,0-3.26-.56,12.58,12.58,0,0,1-1.64,0,14.34,14.34,0,0,1,.79-3,4.35,4.35,0,0,0,.26-3.22c-.18-.69-.13-1.43-.3-2.12A34.59,34.59,0,0,1,79.66,122c-.2-2,0-4.07,0-6.07,1.12.35.81,2.12,2.23,2.71a6.46,6.46,0,0,0-1.9-3.4,1.91,1.91,0,0,1-.56-.68c-1.12-2.85-3.1-5.17-4.66-7.75C74.09,105.73,73.75,104.49,73.05,104Zm.28-10.82c-1,.68-1.79,1.19-2.55,1.76a1.5,1.5,0,0,1-1.81.27c-1.09-.62-2.22-1.17-3.31-1.78a1.31,1.31,0,0,1-.54-.67c-.21-.66-.28-1.37-.52-2-.29-.79-.4-1.78-1.3-2,.43,1.34.8,2.68,1.3,4a2.44,2.44,0,0,0,1,1.14,25.52,25.52,0,0,0,3,1.65c.48.21,1.18.45,1.55.25a24.19,24.19,0,0,0,2.9-2C73.16,93.7,73.18,93.52,73.33,93.16ZM68.93,78l-.39.1,1,4.13.39-.09Zm1,5.68-.36-.11a7.42,7.42,0,0,0-.17,1.8c0,.3.56.54.87.81l.35-.24C69.44,85.43,69.93,84.5,69.94,83.69Zm1,6.36-.49-.28a6.77,6.77,0,0,0-.52.9s.36.25.56.38Z"/><path class="cls-3" d="M85.86,119.88a3.51,3.51,0,0,1,1.46-2.44c1.13-.92,2.28-1.93,2.47-3.45.23-1.87.43-3.76-.65-5.54a18.09,18.09,0,0,1-1.22-3c-.06-.15,0-.36-.16-.46-1.68-1.79-1.63-4-1.5-6.22a5.3,5.3,0,0,0-.69-3.16c-.85-1.49.18-4.33,1.63-5.28A20.71,20.71,0,0,1,98,87.08a3.05,3.05,0,0,0,2.24-1.64,8.14,8.14,0,0,1,3-3.82c1.5-1,2-2.44,2.38-4,.09-.36.21-.71.37-1.22-.43-.06-.79-.34-1,.5a14.28,14.28,0,0,1-1.17,3.34c0-1.92-.63-3.87.26-5.36l3.69-1.46v-.34c-.37-.06-.75-.1-1.12-.19-2.44-.58-4.92-1-7.29-1.82a8,8,0,0,1-3-2c-.87-.88-.47-2.84.6-4a3.61,3.61,0,0,1,.42-.38c1.05.22,2.1.4,3.13.66s2.27.63,3.39,1A26.35,26.35,0,0,0,112.6,68a13.48,13.48,0,0,1,1.55.12c.1-.71.1-.71-1.66-.75-.21-.33-.33-.76-.6-.88-.78-.36-.57-.83-.35-1.43a5,5,0,0,1,2-2.89,12.25,12.25,0,0,0,.4,1.25c.1.21.33.35.5.52.07-.22.22-.45.18-.65a12,12,0,0,0-.42-1.41c1.15-1.2,2.41-.85,3.57-.13-.06,1.23-.18,2.43-.15,3.63A4.29,4.29,0,0,0,119.09,69c.85.63.67,1.34.24,2.07-.32.53-.7,1-1,1.54a.67.67,0,0,0-.13.45c.64,1.67-.43,3-.86,4.44a8.06,8.06,0,0,0-.49,2.67A3.83,3.83,0,0,1,116,82.8c-.69.87-1.62,1.56-2.27,2.45-1.38,1.9-3.35,3.56-2.95,6.29a5.81,5.81,0,0,0,.42,1.6c.9,1.87.34,3.38-1.59,4.13q-.37.15-.75.27a1,1,0,0,1-1.47-1.11c0-1.52.16-3.05.15-4.57a13.19,13.19,0,0,0-.35-2l-.38-.08c0,.12-.18.27-.14.36.38,1-.2,1.88-.29,2.81A4.3,4.3,0,0,1,101,96.64c-1.77-.55-3.49-1.26-5.25-1.86a4.51,4.51,0,0,0-4.14.32c-1.41.82-1.49,2.19-2.32,3.2-.18.23,0,.9.22,1.31.81,1.87,1.7,3.7,2.48,5.57a6.86,6.86,0,0,1,.59,2.29,18.84,18.84,0,0,0,1.13,6.68c.43,1-.74,2.55-2,2.87a10.68,10.68,0,0,0-4.43,2.38C86.92,119.76,86.56,120.26,85.86,119.88Zm30.26-43.65.42,0q.3-2.92.59-5.84l-.4,0C116.53,72.33,116.32,74.28,116.12,76.23Zm-1.88,5.67c1-.24,2.18-2.75,1.69-3.54Z"/><path class="cls-3" d="M59.2,64.3a10.72,10.72,0,0,0,.68.94,3.51,3.51,0,0,0,.56.44c.12-.22.26-.43.37-.65s0-.2,0-.3c.14-.69.06-1.59.47-2a8.84,8.84,0,0,1,2.82-2.07c.59-.27,1.47.1,2.23.18.75,2.16-.17,4.24-.3,6.34a1.13,1.13,0,0,1-1.29,1.1,2.3,2.3,0,0,0-.76.22,1.34,1.34,0,0,0,2,.09l1.81,1.88c-.91,1.31-4.46,1.48-7.71,1.09a3.63,3.63,0,0,1,.41-.65c1.27-1.25,1.34-2.05.1-3.91a20,20,0,0,0-1.49-1.57,2.89,2.89,0,0,1-.33-1Zm5.16-2-.14.13.66,2.42a4.39,4.39,0,0,0-.57.18,2.35,2.35,0,0,0-.39.33c1.39.1,1.64-.18,1.26-1.27-.13-.37-.17-.78-.33-1.14A3.26,3.26,0,0,0,64.36,62.27Z"/><path class="cls-3" d="M81.56,74.93c1.83.07,1.43,1.78,2.18,2.62a.37.37,0,0,1,0,.35,22.62,22.62,0,0,1-2.43,3c-1,.88-2.52,0-2.66-1.43a3.16,3.16,0,0,1,1.82-3.17C80.94,76,81.22,75.36,81.56,74.93Z"/><path class="cls-3" d="M67.21,117.36a13.55,13.55,0,0,1-.59,7.1"/><path class="cls-3" d="M111.53,67.23a8.71,8.71,0,0,1-1.44,0c-.77-.13-1.52-.37-2.29-.55l.22-.2-2.1-2.74c0,.09,0,.05,0,.05"/><path class="cls-3" d="M82.4,74.45c.47-1.25,1.74-2,1.31-3.46,2.05.7,2.45,3.14.14,5.14C83.41,75.53,83.64,74.36,82.4,74.45Z"/><path class="cls-3" d="M76.89,65.27l-3.53.24.87-1.83Z"/><path class="cls-3" d="M76.14,61.31l.43.12c0,.4.05,1-.17,1.16a4,4,0,0,1-1.4.54l-.24-.37"/><path class="cls-3" d="M84.63,77.35l-.44-.24,1.23-1.81.35.21"/><path d="M73.33,93.16c-.15.36-.17.54-.27.61a24.19,24.19,0,0,1-2.9,2c-.37.2-1.07,0-1.55-.25a25.52,25.52,0,0,1-3-1.65,2.44,2.44,0,0,1-1-1.14c-.5-1.31-.87-2.65-1.3-4,.9.25,1,1.24,1.3,2,.24.64.31,1.35.52,2a1.31,1.31,0,0,0,.54.67c1.09.61,2.22,1.16,3.31,1.78a1.5,1.5,0,0,0,1.81-.27C71.54,94.35,72.34,93.84,73.33,93.16Z"/><path d="M68.93,78l1,4.14-.39.09-1-4.13Z"/><path d="M69.94,83.69c0,.81-.5,1.74.69,2.26l-.35.24c-.31-.27-.82-.51-.87-.81a7.42,7.42,0,0,1,.17-1.8Z"/><path d="M70.91,90.05l-.45,1c-.2-.13-.58-.34-.56-.38a6.77,6.77,0,0,1,.52-.9Z"/><path d="M116.12,76.23c.2-2,.41-3.9.61-5.85l.4,0q-.28,2.91-.59,5.84Z"/><path d="M114.24,81.9l1.69-3.54C116.42,79.15,115.26,81.66,114.24,81.9Z"/><path d="M64.36,62.27a3.26,3.26,0,0,1,.49.65c.16.36.2.77.33,1.14.38,1.09.13,1.37-1.26,1.27a2.35,2.35,0,0,1,.39-.33,4.39,4.39,0,0,1,.57-.18l-.66-2.42Z"/></g></g></svg>